<?xml version="1.0" encoding="UTF-8" standalone="no"?>
<!DOCTYPE svg PUBLIC "-//W3C//DTD SVG 1.1//EN" "http://www.w3.org/Graphics/SVG/1.1/DTD/svg11.dtd">
<svg xmlns="http://www.w3.org/2000/svg" version="1.1" viewBox="0 0 634 593">
<g stroke-width="2.0" fill="none" stroke-linecap="butt">
<path stroke="#2c6b7c" vector-effect="non-scaling-stroke" d="
  M 72.71 181.00
  Q 62.04 232.93 72.06 284.99
  Q 78.67 319.28 96.31 348.69
  Q 114.44 378.91 141.27 402.74
  Q 215.40 468.59 304.10 512.90
  Q 304.19 512.94 306.72 514.32
  Q 312.00 517.21 317.32 516.00
  Q 318.89 515.64 327.69 511.32
  Q 404.48 473.61 470.51 419.33
  Q 480.45 411.17 485.85 406.52
  Q 496.32 397.52 504.56 389.06
  Q 566.21 325.78 568.66 237.26
  Q 568.97 226.20 568.02 217.27
  Q 565.86 196.80 558.21 177.50"
/>
<path stroke="#799495" vector-effect="non-scaling-stroke" d="
  M 558.21 177.50
  Q 545.63 136.78 516.94 107.06
  Q 494.88 84.22 464.20 75.40
  Q 455.35 72.85 444.61 71.50
  Q 392.96 65.01 345.36 87.27
  Q 332.26 93.39 319.09 99.37
  Q 319.00 99.41 316.14 100.96
  Q 313.96 102.14 311.58 102.26
  Q 309.29 102.38 305.72 100.64
  Q 285.83 90.95 265.74 81.70
  Q 251.14 74.97 236.69 72.31
  Q 206.54 66.77 176.25 72.77
  Q 165.89 74.82 157.00 78.11
  Q 138.91 84.78 124.69 96.19
  Q 84.05 128.77 72.71 181.00"
/>
<path stroke="#9fd5e0" vector-effect="non-scaling-stroke" d="
  M 558.21 177.50
  Q 554.49 175.53 550.32 175.93
  Q 547.69 176.18 545.06 176.50
  Q 544.71 176.54 544.20 176.91
  Q 543.54 177.37 543.00 176.54"
/>
<path stroke="#76ff7d" vector-effect="non-scaling-stroke" d="
  M 543.00 176.54
  Q 545.93 174.56 545.66 171.01
  Q 545.47 168.57 543.81 165.44
  Q 536.60 151.79 532.35 144.67
  Q 523.13 129.22 510.58 116.55
  Q 503.34 109.24 495.44 103.53
  Q 467.68 83.49 433.00 81.00
  Q 385.18 77.57 342.00 99.25
  Q 332.93 103.80 325.09 106.91
  Q 316.56 110.29 313.42 110.84
  Q 307.04 111.94 300.81 109.44
  Q 291.33 105.63 279.75 98.99
  Q 251.77 82.96 219.50 80.77
  Q 180.35 78.12 145.94 96.44
  Q 127.90 106.06 114.94 119.69
  Q 94.58 141.09 84.53 169.95
  Q 83.55 172.77 84.22 174.62
  Q 85.09 177.01 87.50 178.46"
/>
<path stroke="#9fd5e0" vector-effect="non-scaling-stroke" d="
  M 87.50 178.46
  Q 81.36 177.62 77.75 178.25
  Q 75.59 178.63 72.71 181.00"
/>
<path stroke="#29d564" vector-effect="non-scaling-stroke" d="
  M 543.00 176.54
  Q 526.56 182.16 519.69 184.69
  Q 489.43 195.82 458.25 204.04"
/>
<path stroke="#039518" vector-effect="non-scaling-stroke" d="
  M 458.25 204.04
  Q 415.72 176.26 364.75 182.29"
/>
<path stroke="#18f728" vector-effect="non-scaling-stroke" d="
  M 364.75 182.29
  Q 352.37 180.42 340.96 185.49
  Q 328.02 191.23 315.68 198.19
  C 315.14 198.50 314.49 198.57 313.89 198.39
  Q 305.51 195.90 297.69 191.69
  Q 286.00 185.40 285.95 185.37
  Q 273.29 179.79 259.26 178.81
  Q 248.31 178.04 232.50 178.50
  Q 198.72 179.48 171.19 196.94
  Q 167.84 199.06 162.75 200.79"
/>
<path stroke="#29d564" vector-effect="non-scaling-stroke" d="
  M 162.75 200.79
  Q 149.09 196.84 135.53 192.55
  Q 127.01 189.87 116.32 187.01
  Q 101.80 183.13 87.50 178.46"
/>
<path stroke="#41cd8b" vector-effect="non-scaling-stroke" d="
  M 162.75 200.79
  Q 165.78 202.57 169.25 203.04"
/>
<path stroke="#2c6b7c" vector-effect="non-scaling-stroke" d="
  M 169.25 203.04
  Q 167.91 225.28 168.76 247.51
  Q 169.36 263.23 169.78 267.47
  Q 171.44 284.24 178.29 299.60
  Q 182.07 308.06 187.63 314.99
  Q 192.99 321.67 200.06 328.19
  Q 219.00 345.62 237.26 357.70
  Q 277.58 384.39 308.52 422.22
  Q 310.04 424.08 311.75 422.38
  Q 350.41 383.79 396.94 353.69
  Q 409.47 345.58 424.46 333.06
  Q 433.80 325.26 438.87 319.24
  Q 457.16 297.54 459.99 268.98
  Q 460.28 266.01 460.96 249.01
  Q 461.76 228.96 461.25 215.75
  Q 461.07 210.96 458.25 204.04"
/>
<path stroke="#1b8c40" vector-effect="non-scaling-stroke" d="
  M 364.75 182.29
  Q 338.72 187.57 316.59 202.09
  Q 314.44 203.50 312.98 203.49
  Q 311.03 203.47 309.06 202.19
  Q 290.21 189.93 267.00 184.00
  Q 242.16 177.65 215.56 183.31
  Q 192.44 188.23 169.25 203.04"
/>
</g>
<path fill="#062a30" d="
  M 515.81 469.06
  Q 506.58 476.90 501.47 480.72
  Q 417.89 543.30 319.31 589.06
  Q 314.64 591.23 310.30 590.82
  Q 307.58 590.57 302.03 587.73
  Q 211.27 541.35 131.03 478.44
  Q 101.93 455.62 77.44 429.31
  Q 62.90 413.70 50.05 395.87
  Q 43.98 387.45 39.17 379.11
  Q 10.08 328.60 3.97 270.00
  Q -0.67 225.53 5.48 181.39
  Q 7.07 170.02 8.75 161.65
  Q 18.30 114.22 47.57 75.87
  Q 53.80 67.71 60.54 60.67
  Q 89.07 30.87 127.75 15.75
  Q 158.50 3.73 192.00 2.20
  Q 251.98 -0.55 305.55 25.97
  Q 312.11 29.23 318.79 26.16
  Q 365.19 4.84 415.00 2.50
  Q 434.94 1.56 457.52 4.33
  Q 516.94 11.62 560.01 51.35
  Q 567.03 57.83 574.15 65.50
  Q 616.59 111.25 627.00 172.50
  Q 632.46 204.66 632.00 242.75
  Q 631.47 286.34 619.07 324.27
  Q 602.36 375.40 568.74 416.89
  Q 563.26 423.66 555.33 431.74
  Q 545.84 441.41 536.11 450.87
  Q 528.22 458.53 515.81 469.06
  Z
  M 72.71 181.00
  Q 62.04 232.93 72.06 284.99
  Q 78.67 319.28 96.31 348.69
  Q 114.44 378.91 141.27 402.74
  Q 215.40 468.59 304.10 512.90
  Q 304.19 512.94 306.72 514.32
  Q 312.00 517.21 317.32 516.00
  Q 318.89 515.64 327.69 511.32
  Q 404.48 473.61 470.51 419.33
  Q 480.45 411.17 485.85 406.52
  Q 496.32 397.52 504.56 389.06
  Q 566.21 325.78 568.66 237.26
  Q 568.97 226.20 568.02 217.27
  Q 565.86 196.80 558.21 177.50
  Q 545.63 136.78 516.94 107.06
  Q 494.88 84.22 464.20 75.40
  Q 455.35 72.85 444.61 71.50
  Q 392.96 65.01 345.36 87.27
  Q 332.26 93.39 319.09 99.37
  Q 319.00 99.41 316.14 100.96
  Q 313.96 102.14 311.58 102.26
  Q 309.29 102.38 305.72 100.64
  Q 285.83 90.95 265.74 81.70
  Q 251.14 74.97 236.69 72.31
  Q 206.54 66.77 176.25 72.77
  Q 165.89 74.82 157.00 78.11
  Q 138.91 84.78 124.69 96.19
  Q 84.05 128.77 72.71 181.00
  Z"
/>
<path fill="#ecfef9" d="
  M 558.21 177.50
  Q 554.49 175.53 550.32 175.93
  Q 547.69 176.18 545.06 176.50
  Q 544.71 176.54 544.20 176.91
  Q 543.54 177.37 543.00 176.54
  Q 545.93 174.56 545.66 171.01
  Q 545.47 168.57 543.81 165.44
  Q 536.60 151.79 532.35 144.67
  Q 523.13 129.22 510.58 116.55
  Q 503.34 109.24 495.44 103.53
  Q 467.68 83.49 433.00 81.00
  Q 385.18 77.57 342.00 99.25
  Q 332.93 103.80 325.09 106.91
  Q 316.56 110.29 313.42 110.84
  Q 307.04 111.94 300.81 109.44
  Q 291.33 105.63 279.75 98.99
  Q 251.77 82.96 219.50 80.77
  Q 180.35 78.12 145.94 96.44
  Q 127.90 106.06 114.94 119.69
  Q 94.58 141.09 84.53 169.95
  Q 83.55 172.77 84.22 174.62
  Q 85.09 177.01 87.50 178.46
  Q 81.36 177.62 77.75 178.25
  Q 75.59 178.63 72.71 181.00
  Q 84.05 128.77 124.69 96.19
  Q 138.91 84.78 157.00 78.11
  Q 165.89 74.82 176.25 72.77
  Q 206.54 66.77 236.69 72.31
  Q 251.14 74.97 265.74 81.70
  Q 285.83 90.95 305.72 100.64
  Q 309.29 102.38 311.58 102.26
  Q 313.96 102.14 316.14 100.96
  Q 319.00 99.41 319.09 99.37
  Q 332.26 93.39 345.36 87.27
  Q 392.96 65.01 444.61 71.50
  Q 455.35 72.85 464.20 75.40
  Q 494.88 84.22 516.94 107.06
  Q 545.63 136.78 558.21 177.50
  Z"
/>
<path fill="#00ff00" d="
  M 543.00 176.54
  Q 526.56 182.16 519.69 184.69
  Q 489.43 195.82 458.25 204.04
  Q 415.72 176.26 364.75 182.29
  Q 352.37 180.42 340.96 185.49
  Q 328.02 191.23 315.68 198.19
  C 315.14 198.50 314.49 198.57 313.89 198.39
  Q 305.51 195.90 297.69 191.69
  Q 286.00 185.40 285.95 185.37
  Q 273.29 179.79 259.26 178.81
  Q 248.31 178.04 232.50 178.50
  Q 198.72 179.48 171.19 196.94
  Q 167.84 199.06 162.75 200.79
  Q 149.09 196.84 135.53 192.55
  Q 127.01 189.87 116.32 187.01
  Q 101.80 183.13 87.50 178.46
  Q 85.09 177.01 84.22 174.62
  Q 83.55 172.77 84.53 169.95
  Q 94.58 141.09 114.94 119.69
  Q 127.90 106.06 145.94 96.44
  Q 180.35 78.12 219.50 80.77
  Q 251.77 82.96 279.75 98.99
  Q 291.33 105.63 300.81 109.44
  Q 307.04 111.94 313.42 110.84
  Q 316.56 110.29 325.09 106.91
  Q 332.93 103.80 342.00 99.25
  Q 385.18 77.57 433.00 81.00
  Q 467.68 83.49 495.44 103.53
  Q 503.34 109.24 510.58 116.55
  Q 523.13 129.22 532.35 144.67
  Q 536.60 151.79 543.81 165.44
  Q 545.47 168.57 545.66 171.01
  Q 545.93 174.56 543.00 176.54
  Z"
/>
<path fill="#52abc7" d="
  M 558.21 177.50
  Q 565.86 196.80 568.02 217.27
  Q 568.97 226.20 568.66 237.26
  Q 566.21 325.78 504.56 389.06
  Q 496.32 397.52 485.85 406.52
  Q 480.45 411.17 470.51 419.33
  Q 404.48 473.61 327.69 511.32
  Q 318.89 515.64 317.32 516.00
  Q 312.00 517.21 306.72 514.32
  Q 304.19 512.94 304.10 512.90
  Q 215.40 468.59 141.27 402.74
  Q 114.44 378.91 96.31 348.69
  Q 78.67 319.28 72.06 284.99
  Q 62.04 232.93 72.71 181.00
  Q 75.59 178.63 77.75 178.25
  Q 81.36 177.62 87.50 178.46
  Q 101.80 183.13 116.32 187.01
  Q 127.01 189.87 135.53 192.55
  Q 149.09 196.84 162.75 200.79
  Q 165.78 202.57 169.25 203.04
  Q 167.91 225.28 168.76 247.51
  Q 169.36 263.23 169.78 267.47
  Q 171.44 284.24 178.29 299.60
  Q 182.07 308.06 187.63 314.99
  Q 192.99 321.67 200.06 328.19
  Q 219.00 345.62 237.26 357.70
  Q 277.58 384.39 308.52 422.22
  Q 310.04 424.08 311.75 422.38
  Q 350.41 383.79 396.94 353.69
  Q 409.47 345.58 424.46 333.06
  Q 433.80 325.26 438.87 319.24
  Q 457.16 297.54 459.99 268.98
  Q 460.28 266.01 460.96 249.01
  Q 461.76 228.96 461.25 215.75
  Q 461.07 210.96 458.25 204.04
  Q 489.43 195.82 519.69 184.69
  Q 526.56 182.16 543.00 176.54
  Q 543.54 177.37 544.20 176.91
  Q 544.71 176.54 545.06 176.50
  Q 547.69 176.18 550.32 175.93
  Q 554.49 175.53 558.21 177.50
  Z"
/>
<path fill="#30ee4f" d="
  M 364.75 182.29
  Q 338.72 187.57 316.59 202.09
  Q 314.44 203.50 312.98 203.49
  Q 311.03 203.47 309.06 202.19
  Q 290.21 189.93 267.00 184.00
  Q 242.16 177.65 215.56 183.31
  Q 192.44 188.23 169.25 203.04
  Q 165.78 202.57 162.75 200.79
  Q 167.84 199.06 171.19 196.94
  Q 198.72 179.48 232.50 178.50
  Q 248.31 178.04 259.26 178.81
  Q 273.29 179.79 285.95 185.37
  Q 286.00 185.40 297.69 191.69
  Q 305.51 195.90 313.89 198.39
  C 314.49 198.57 315.14 198.50 315.68 198.19
  Q 328.02 191.23 340.96 185.49
  Q 352.37 180.42 364.75 182.29
  Z"
/>
<path fill="#062a30" d="
  M 364.75 182.29
  Q 415.72 176.26 458.25 204.04
  Q 461.07 210.96 461.25 215.75
  Q 461.76 228.96 460.96 249.01
  Q 460.28 266.01 459.99 268.98
  Q 457.16 297.54 438.87 319.24
  Q 433.80 325.26 424.46 333.06
  Q 409.47 345.58 396.94 353.69
  Q 350.41 383.79 311.75 422.38
  Q 310.04 424.08 308.52 422.22
  Q 277.58 384.39 237.26 357.70
  Q 219.00 345.62 200.06 328.19
  Q 192.99 321.67 187.63 314.99
  Q 182.07 308.06 178.29 299.60
  Q 171.44 284.24 169.78 267.47
  Q 169.36 263.23 168.76 247.51
  Q 167.91 225.28 169.25 203.04
  Q 192.44 188.23 215.56 183.31
  Q 242.16 177.65 267.00 184.00
  Q 290.21 189.93 309.06 202.19
  Q 311.03 203.47 312.98 203.49
  Q 314.44 203.50 316.59 202.09
  Q 338.72 187.57 364.75 182.29
  Z"
/>
</svg>
