<?xml version="1.0" encoding="UTF-8" standalone="no"?>
<!DOCTYPE svg PUBLIC "-//W3C//DTD SVG 1.1//EN" "http://www.w3.org/Graphics/SVG/1.1/DTD/svg11.dtd">
<svg xmlns="http://www.w3.org/2000/svg" version="1.1" viewBox="0 0 178 178">
<g stroke-width="2.0" fill="none" stroke-linecap="butt">
<path stroke="#2c6b7c" vector-effect="non-scaling-stroke" d="
  M 31.04 61.00
  Q 28.46 73.89 31.08 86.41
  Q 32.75 94.35 36.86 101.10
  Q 41.11 108.08 47.06 113.44
  Q 65.08 129.67 87.49 140.77
  Q 88.95 141.50 90.43 140.79
  Q 112.29 130.36 130.87 114.13
  Q 150.01 97.42 150.00 72.25
  Q 150.00 66.60 147.50 59.96"
/>
<path stroke="#799495" vector-effect="non-scaling-stroke" d="
  M 147.50 59.96
  Q 144.71 50.93 138.60 44.12
  Q 134.43 39.47 129.44 37.12
  Q 124.11 34.61 118.00 34.22
  Q 110.62 33.75 103.60 35.62
  Q 100.73 36.39 96.17 38.44
  Q 92.52 40.09 88.93 41.76
  C 88.45 41.98 87.89 41.97 87.41 41.74
  Q 81.93 39.02 76.44 36.56
  Q 69.49 33.45 60.00 34.20
  Q 47.46 35.17 39.23 44.49
  Q 32.92 51.65 31.04 61.00"
/>
<path stroke="#9fd5e0" vector-effect="non-scaling-stroke" d="
  M 147.50 59.96
  Q 145.72 59.61 144.00 60.21"
/>
<path stroke="#e0fac5" vector-effect="non-scaling-stroke" d="
  M 144.00 60.21
  L 143.71 59.75"
/>
<path stroke="#76ff7d" vector-effect="non-scaling-stroke" d="
  M 143.71 59.75
  Q 144.93 58.87 144.25 57.50
  Q 141.32 51.58 138.48 48.01
  Q 133.10 41.25 125.51 38.47
  Q 118.81 36.02 110.30 36.86
  Q 102.33 37.66 95.31 41.31
  Q 92.23 42.92 89.58 43.73
  Q 87.49 44.37 85.49 43.51
  Q 83.35 42.59 80.19 40.81
  Q 73.51 37.06 65.65 36.66
  Q 58.04 36.28 51.19 39.23
  Q 38.82 44.54 33.85 58.22
  C 33.73 58.57 33.72 58.91 33.84 59.17
  Q 34.26 60.14 35.50 60.46"
/>
<path stroke="#e0fac5" vector-effect="non-scaling-stroke" d="
  M 35.50 60.46
  Q 34.56 60.76 35.46 61.25"
/>
<path stroke="#9fd5e0" vector-effect="non-scaling-stroke" d="
  M 35.46 61.25
  Q 33.27 60.48 31.04 61.00"
/>
<path stroke="#93d1ac" vector-effect="non-scaling-stroke" d="
  M 144.00 60.21
  Q 139.23 62.43 134.12 63.74
  Q 134.06 63.75 133.53 63.97
  Q 132.95 64.20 132.46 63.75"
/>
<path stroke="#6afb48" vector-effect="non-scaling-stroke" d="
  M 143.71 59.75
  L 132.46 63.75"
/>
<path stroke="#29d564" vector-effect="non-scaling-stroke" d="
  M 132.46 63.75
  L 123.50 66.29"
/>
<path stroke="#039518" vector-effect="non-scaling-stroke" d="
  M 123.50 66.29
  Q 113.41 59.63 101.25 61.04"
/>
<path stroke="#18f728" vector-effect="non-scaling-stroke" d="
  M 101.25 61.04
  Q 98.07 60.54 94.81 62.06
  Q 91.49 63.62 89.67 64.73
  C 89.38 64.91 89.06 64.97 88.77 64.89
  Q 86.80 64.39 83.69 62.56
  Q 80.46 60.67 76.30 60.29
  Q 73.00 59.99 68.70 60.17
  Q 61.05 60.48 54.45 64.71
  Q 53.43 65.37 52.25 65.54"
/>
<path stroke="#29d564" vector-effect="non-scaling-stroke" d="
  M 52.25 65.54
  L 52.00 65.46"
/>
<path stroke="#6afb48" vector-effect="non-scaling-stroke" d="
  M 52.00 65.46
  L 35.50 60.46"
/>
<path stroke="#93d1ac" vector-effect="non-scaling-stroke" d="
  M 35.46 61.25
  Q 38.20 62.44 46.69 64.81
  Q 50.16 65.78 52.00 65.46"
/>
<path stroke="#41cd8b" vector-effect="non-scaling-stroke" d="
  M 52.25 65.54
  L 54.25 66.04"
/>
<path stroke="#2c6b7c" vector-effect="non-scaling-stroke" d="
  M 54.25 66.04
  Q 53.82 70.85 54.25 79.75
  Q 54.54 85.78 57.00 90.42
  Q 58.55 93.35 62.69 96.99
  Q 67.16 100.90 69.56 102.44
  Q 79.95 109.07 87.69 118.61
  C 87.85 118.82 88.16 118.84 88.34 118.65
  Q 97.01 109.87 107.33 103.09
  Q 111.83 100.15 115.96 96.71
  Q 123.11 90.78 123.93 81.49
  Q 124.18 78.59 124.25 70.50
  Q 124.27 67.99 123.50 66.29"
/>
<path stroke="#1b8c40" vector-effect="non-scaling-stroke" d="
  M 101.25 61.04
  Q 94.83 62.27 89.42 65.95
  C 88.98 66.25 88.41 66.26 87.96 65.97
  Q 71.10 55.35 54.25 66.04"
/>
</g>
<path fill="#062a30" d="
  M 45.81 132.66
  Q 34.44 123.78 26.75 113.75
  Q 20.02 104.97 16.73 93.18
  Q 13.06 80.01 14.56 64.31
  Q 15.48 54.69 17.94 48.36
  Q 24.93 30.34 41.14 22.48
  Q 49.97 18.21 60.43 17.84
  Q 74.43 17.35 86.97 23.61
  C 87.87 24.06 88.92 24.08 89.83 23.67
  Q 108.11 15.38 127.00 19.00
  Q 139.28 21.35 148.77 30.48
  Q 161.32 42.55 164.00 59.00
  Q 165.13 65.91 165.17 74.16
  Q 165.22 82.53 163.67 89.23
  Q 160.05 104.83 149.81 117.56
  Q 148.13 119.65 141.82 125.74
  Q 137.51 129.90 133.13 133.14
  Q 112.64 148.33 89.90 158.70
  Q 88.34 159.42 86.81 158.63
  Q 64.53 147.27 45.81 132.66
  Z
  M 31.04 61.00
  Q 28.46 73.89 31.08 86.41
  Q 32.75 94.35 36.86 101.10
  Q 41.11 108.08 47.06 113.44
  Q 65.08 129.67 87.49 140.77
  Q 88.95 141.50 90.43 140.79
  Q 112.29 130.36 130.87 114.13
  Q 150.01 97.42 150.00 72.25
  Q 150.00 66.60 147.50 59.96
  Q 144.71 50.93 138.60 44.12
  Q 134.43 39.47 129.44 37.12
  Q 124.11 34.61 118.00 34.22
  Q 110.62 33.75 103.60 35.62
  Q 100.73 36.39 96.17 38.44
  Q 92.52 40.09 88.93 41.76
  C 88.45 41.98 87.89 41.97 87.41 41.74
  Q 81.93 39.02 76.44 36.56
  Q 69.49 33.45 60.00 34.20
  Q 47.46 35.17 39.23 44.49
  Q 32.92 51.65 31.04 61.00
  Z"
/>
<path fill="#ecfef9" d="
  M 147.50 59.96
  Q 145.72 59.61 144.00 60.21
  L 143.71 59.75
  Q 144.93 58.87 144.25 57.50
  Q 141.32 51.58 138.48 48.01
  Q 133.10 41.25 125.51 38.47
  Q 118.81 36.02 110.30 36.86
  Q 102.33 37.66 95.31 41.31
  Q 92.23 42.92 89.58 43.73
  Q 87.49 44.37 85.49 43.51
  Q 83.35 42.59 80.19 40.81
  Q 73.51 37.06 65.65 36.66
  Q 58.04 36.28 51.19 39.23
  Q 38.82 44.54 33.85 58.22
  C 33.73 58.57 33.72 58.91 33.84 59.17
  Q 34.26 60.14 35.50 60.46
  Q 34.56 60.76 35.46 61.25
  Q 33.27 60.48 31.04 61.00
  Q 32.92 51.65 39.23 44.49
  Q 47.46 35.17 60.00 34.20
  Q 69.49 33.45 76.44 36.56
  Q 81.93 39.02 87.41 41.74
  C 87.89 41.97 88.45 41.98 88.93 41.76
  Q 92.52 40.09 96.17 38.44
  Q 100.73 36.39 103.60 35.62
  Q 110.62 33.75 118.00 34.22
  Q 124.11 34.61 129.44 37.12
  Q 134.43 39.47 138.60 44.12
  Q 144.71 50.93 147.50 59.96
  Z"
/>
<path fill="#00ff00" d="
  M 143.71 59.75
  L 132.46 63.75
  L 123.50 66.29
  Q 113.41 59.63 101.25 61.04
  Q 98.07 60.54 94.81 62.06
  Q 91.49 63.62 89.67 64.73
  C 89.38 64.91 89.06 64.97 88.77 64.89
  Q 86.80 64.39 83.69 62.56
  Q 80.46 60.67 76.30 60.29
  Q 73.00 59.99 68.70 60.17
  Q 61.05 60.48 54.45 64.71
  Q 53.43 65.37 52.25 65.54
  L 52.00 65.46
  L 35.50 60.46
  Q 34.26 60.14 33.84 59.17
  C 33.72 58.91 33.73 58.57 33.85 58.22
  Q 38.82 44.54 51.19 39.23
  Q 58.04 36.28 65.65 36.66
  Q 73.51 37.06 80.19 40.81
  Q 83.35 42.59 85.49 43.51
  Q 87.49 44.37 89.58 43.73
  Q 92.23 42.92 95.31 41.31
  Q 102.33 37.66 110.30 36.86
  Q 118.81 36.02 125.51 38.47
  Q 133.10 41.25 138.48 48.01
  Q 141.32 51.58 144.25 57.50
  Q 144.93 58.87 143.71 59.75
  Z"
/>
<path fill="#d4f690" d="
  M 143.71 59.75
  L 144.00 60.21
  Q 139.23 62.43 134.12 63.74
  Q 134.06 63.75 133.53 63.97
  Q 132.95 64.20 132.46 63.75
  L 143.71 59.75
  Z"
/>
<path fill="#52abc7" d="
  M 147.50 59.96
  Q 150.00 66.60 150.00 72.25
  Q 150.01 97.42 130.87 114.13
  Q 112.29 130.36 90.43 140.79
  Q 88.95 141.50 87.49 140.77
  Q 65.08 129.67 47.06 113.44
  Q 41.11 108.08 36.86 101.10
  Q 32.75 94.35 31.08 86.41
  Q 28.46 73.89 31.04 61.00
  Q 33.27 60.48 35.46 61.25
  Q 38.20 62.44 46.69 64.81
  Q 50.16 65.78 52.00 65.46
  L 52.25 65.54
  L 54.25 66.04
  Q 53.82 70.85 54.25 79.75
  Q 54.54 85.78 57.00 90.42
  Q 58.55 93.35 62.69 96.99
  Q 67.16 100.90 69.56 102.44
  Q 79.95 109.07 87.69 118.61
  C 87.85 118.82 88.16 118.84 88.34 118.65
  Q 97.01 109.87 107.33 103.09
  Q 111.83 100.15 115.96 96.71
  Q 123.11 90.78 123.93 81.49
  Q 124.18 78.59 124.25 70.50
  Q 124.27 67.99 123.50 66.29
  L 132.46 63.75
  Q 132.95 64.20 133.53 63.97
  Q 134.06 63.75 134.12 63.74
  Q 139.23 62.43 144.00 60.21
  Q 145.72 59.61 147.50 59.96
  Z"
/>
<path fill="#30ee4f" d="
  M 101.25 61.04
  Q 94.83 62.27 89.42 65.95
  C 88.98 66.25 88.41 66.26 87.96 65.97
  Q 71.10 55.35 54.25 66.04
  L 52.25 65.54
  Q 53.43 65.37 54.45 64.71
  Q 61.05 60.48 68.70 60.17
  Q 73.00 59.99 76.30 60.29
  Q 80.46 60.67 83.69 62.56
  Q 86.80 64.39 88.77 64.89
  C 89.06 64.97 89.38 64.91 89.67 64.73
  Q 91.49 63.62 94.81 62.06
  Q 98.07 60.54 101.25 61.04
  Z"
/>
<path fill="#d4f690" d="
  M 35.50 60.46
  L 52.00 65.46
  Q 50.16 65.78 46.69 64.81
  Q 38.20 62.44 35.46 61.25
  Q 34.56 60.76 35.50 60.46
  Z"
/>
<path fill="#062a30" d="
  M 101.25 61.04
  Q 113.41 59.63 123.50 66.29
  Q 124.27 67.99 124.25 70.50
  Q 124.18 78.59 123.93 81.49
  Q 123.11 90.78 115.96 96.71
  Q 111.83 100.15 107.33 103.09
  Q 97.01 109.87 88.34 118.65
  C 88.16 118.84 87.85 118.82 87.69 118.61
  Q 79.95 109.07 69.56 102.44
  Q 67.16 100.90 62.69 96.99
  Q 58.55 93.35 57.00 90.42
  Q 54.54 85.78 54.25 79.75
  Q 53.82 70.85 54.25 66.04
  Q 71.10 55.35 87.96 65.97
  C 88.41 66.26 88.98 66.25 89.42 65.95
  Q 94.83 62.27 101.25 61.04
  Z"
/>
</svg>
